<?xml version="1.0" encoding="utf-8"?>
<!-- Generator: Adobe Illustrator 24.1.0, SVG Export Plug-In . SVG Version: 6.00 Build 0)  -->
<svg version="1.1" id="Layer_1" xmlns="http://www.w3.org/2000/svg" xmlns:xlink="http://www.w3.org/1999/xlink" x="0px" y="0px"
	 viewBox="0 0 482 146" style="enable-background:new 0 0 482 146;" xml:space="preserve">
<style type="text/css">
	.st0{fill:#3A8DDE;}
	.st1{fill:#FFFFFF;}
</style>
<g>
	<g>
		<path class="st0" d="M91.3,86c0-4.4-4.4-8.3-11.6-11.4c-8.4,2.9-19,4.5-30.6,4.5V68.9v-2v-0.3c23.6-0.5,42.2-5.6,42.2-13.8
			c0-9-18.6-16.4-42.2-17.1v-2c27.2,0.1,49.2,11,49.2,23.7c0,6.6-5.9,12.2-15.5,16.1c9.5,4.4,15.5,10.5,15.5,17.1
			c0,12.7-22,21.7-49.2,21.7V99.8C72.7,99.3,91.3,94.1,91.3,86z"/>
		<path class="st1" d="M49.2,50.3v2C25.6,53,7,60.4,7,69.4c0,8.1,18.6,13.3,42.2,13.8v12.6C22,95.7,0,86.7,0,74
			C0,61.3,22,50.4,49.2,50.3z"/>
	</g>
	<g>
		<path class="st1" d="M145.3,78.5c0-8.4,6.6-14.9,14.8-14.9c8.2,0,14.8,6.6,14.8,14.9c0,8.2-6.6,14.9-14.8,14.9
			C151.9,93.3,145.3,86.7,145.3,78.5z M168.5,78.5c0-4.8-3.6-8.7-8.3-8.7c-4.7,0-8.3,3.9-8.3,8.7c0,4.7,3.6,8.7,8.3,8.7
			C164.9,87.1,168.5,83.2,168.5,78.5z"/>
		<path class="st1" d="M176.6,64.2h6.6v28.6h-6.6V64.2z M175.4,57c0-2.5,2-4.5,4.5-4.5s4.5,2,4.5,4.5c0,2.5-2,4.5-4.5,4.5
			S175.4,59.5,175.4,57z"/>
		<path class="st1" d="M185.9,64.2h6.6v3.5c1.9-2.5,4.8-4.1,8.6-4.1c7.2,0,11.3,4.4,11.3,12.2v17h-6.7V76.5c0-4.4-2.2-7.2-6.5-7.2
			c-3.8,0-6.7,2.7-6.7,7.8v15.7h-6.6V64.2z"/>
		<path class="st0" d="M214.9,64.2h6.6v3.3c1.8-2.4,4.6-3.9,8.2-3.9c4.5,0,7.6,1.8,9.3,4.9c2-3,5.3-4.9,9.4-4.9
			c7.8,0,11.6,4.5,11.6,12v17.2h-6.7V76.1c0-4.2-2.1-6.8-6.2-6.8c-3.6,0-6.3,2.4-6.3,7.5v16H234V75.9c0-4.1-2.1-6.6-6-6.6
			c-3.7,0-6.5,2.5-6.5,7.6v15.8h-6.6V64.2z"/>
		<path class="st0" d="M308.2,64.2c-3.6,0-6,1.4-7.3,4.3v-4.3h-6.6v28.6h6.6V77.5c0-4.9,2-7,5.9-7c1.9,0,3,0.5,4,1.1v-7.2
			C310,64.3,309.2,64.2,308.2,64.2z"/>
		<path class="st0" d="M457.6,86.4l6.1-2.9c1.4,2.7,3.8,4.2,6.9,4.2c3.3,0,4.9-1.6,4.9-3.5c0-2.1-3.2-2.5-6.7-3.3
			c-4.9-1-10-2.6-10-8.6c0-4.6,4.4-8.8,11.2-8.8c5.8,0,9.5,2.2,11.7,5.9l-5.6,2.8c-1.2-2-3.3-3.3-6.1-3.3c-3.1,0-4.6,1.5-4.6,3.1
			c0,1.9,2.2,2.4,6.6,3.3C476.6,76.3,482,78,482,84c0,4-3.6,9.3-11.7,9.3C463.9,93.3,459.9,90.9,457.6,86.4z"/>
		<path class="st0" d="M397.1,58.8v-6.1h-0.6c-8.7,0-12,3.2-12,11.4v0h-5.4h-2.5h-3.4v-8.9l-6.6,4.5v4.4l0,0.1v5.9l0-0.1v10.8
			c0,9.1,2.7,11.9,11.5,11.9h0.9v-6.2c-5.1,0-5.8-0.8-5.8-5.8V70.1h3.4l0,0h7.9v22.7h6.7V70.1h5.9v-5.9h-5.9
			C391.2,60,391.8,58.8,397.1,58.8z"/>
		<g>
			<polygon class="st0" points="319.5,56.6 312.9,56.6 312.9,64.6 312.9,92.8 319.5,92.8 319.5,85.5 319.5,77.9 319.5,76.2 
				319.5,74 			"/>
			<polygon class="st0" points="327,76.5 338,64.2 330.1,64.2 319.5,76.2 322.4,80.5 322.4,80.5 331,92.8 338.4,92.8 			"/>
		</g>
		<g>
			<path class="st1" d="M132.2,87.1c-4.7,0-8.3-3.9-8.3-8.7c0-4.8,3.6-8.7,8.3-8.7c2.9,0,5.4,1.5,6.9,3.8l4.6-4.6
				c-2.7-3.3-6.8-5.4-11.5-5.4c-8.3,0-14.8,6.6-14.8,14.9c0,8.2,6.6,14.9,14.8,14.9c4.6,0,8.7-2.1,11.4-5.4l-4.6-4.6
				C137.6,85.6,135.1,87.1,132.2,87.1z"/>
		</g>
		<path class="st0" d="M285.2,64.2v2c-2.4-1.6-5.3-2.6-8.4-2.6c-8.3,0-14.8,6.6-14.8,14.9c0,8.2,6.6,14.9,14.8,14.9
			c3.1,0,6-1,8.4-2.6v2h6.6V64.2H285.2z M276.8,87.1c-4.7,0-8.3-3.9-8.3-8.7c0-4.8,3.6-8.7,8.3-8.7c4.7,0,8.3,3.9,8.3,8.7
			C285.1,83.2,281.5,87.1,276.8,87.1z"/>
		<path class="st0" d="M364.7,80.7c0.1-0.7,0.2-1.5,0.2-2.2c0-1.1-0.1-2.2-0.3-3.2c-1.4-6.8-7.3-11.7-14.5-11.7
			c-7.2,0-13,4.9-14.5,11.7c-0.2,1-0.3,2.1-0.3,3.2c0,0.8,0.1,1.5,0.2,2.2c1.1,7.1,7.1,12.6,14.6,12.6c6,0,11.1-3.6,13.5-8.7H356
			c-1.5,1.5-3.5,2.5-5.8,2.5c-4,0-7.1-2.7-8-6.4h16.1H364.7z M342.4,75.2c1.2-3.2,4.1-5.5,7.7-5.5c3.6,0,6.5,2.3,7.7,5.5H342.4z"/>
		<path class="st0" d="M425.6,80.7c0.1-0.7,0.2-1.5,0.2-2.2c0-1.1-0.1-2.2-0.3-3.2c-1.4-6.8-7.3-11.7-14.5-11.7
			c-7.2,0-13,4.9-14.5,11.7c-0.2,1-0.3,2.1-0.3,3.2c0,0.8,0.1,1.5,0.2,2.2c1.1,7.1,7.1,12.6,14.6,12.6c6,0,11.1-3.6,13.5-8.7h-7.6
			c-1.5,1.5-3.5,2.5-5.8,2.5c-4,0-7.1-2.7-8-6.4H419H425.6z M403.2,75.2c1.2-3.2,4.1-5.5,7.7-5.5c3.6,0,6.5,2.3,7.7,5.5H403.2z"/>
		<path class="st0" d="M457.4,80.7c0.1-0.7,0.2-1.5,0.2-2.2c0-1.1-0.1-2.2-0.3-3.2c-1.4-6.8-7.3-11.7-14.5-11.7
			c-7.2,0-13,4.9-14.5,11.7c-0.2,1-0.3,2.1-0.3,3.2c0,0.8,0.1,1.5,0.2,2.2c1.1,7.1,7.1,12.6,14.6,12.6c6,0,11.1-3.6,13.5-8.7h-7.6
			c-1.5,1.5-3.5,2.5-5.8,2.5c-4,0-7.1-2.7-8-6.4h16.1H457.4z M435,75.2c1.2-3.2,4.1-5.5,7.7-5.5c3.6,0,6.5,2.3,7.7,5.5H435z"/>
	</g>
</g>
</svg>
